<?xml version="1.0" encoding="utf-8"?>
<svg viewBox="8.055 1.151 653.625 500" xmlns="http://www.w3.org/2000/svg">
  <g transform="matrix(1.6684291362762451, 0, 0, 1.4876279830932617, 218.808853149414, 62.962207794189446)" style="">
    <g transform="translate(-136.89 -361.85)" stroke="#000" stroke-width="2">
      <path d="m172.42 372.69c-2.674-0.49567-11.991 2.1652-10.445 1.917 2.4912-1.9686-6.2231 6.5825-4.5363 10.505-1.1832 10.746 10.21 16.955 19.349 18.04 2.3204 0.20924 8.5927-2.755 3.2503-0.15573 5.7404-7.2532 4.2259-19.119-1.8802-25.894-3.8397-2.3743-11.256-7.701-3.2584-6.8878 9.01 4.1554 14.036 14.755 11.639 24.365-0.30497 10.69-15.099 13.553-22.468 7.754-9.5682-3.1538-13.041-15.405-7.6938-23.579 3.3869-6.0303 15.195-9.1522 18.453-7.815l-2.4103 1.7512z"/>
    </g>
  </g>
</svg>