<?xml version="1.0" encoding="utf-8"?>
<svg viewBox="8.055 1.151 653.625 500" xmlns="http://www.w3.org/2000/svg">
  <g transform="matrix(6.821938991546631, 0, 0, 5.760402202606201, -139.6765594482422, -477.5549011230468)" style="">
    <g transform="translate(-136.89 -361.85)" stroke="#000" stroke-width="2">
      <path d="M 208.373 473.339 C 205.699 472.843 196.382 475.504 197.928 475.256 C 200.419 473.287 191.705 481.838 193.391 485.761 C 192.208 496.507 203.601 502.716 212.74 503.801 C 215.061 504.01 221.333 501.046 215.991 503.645 C 221.731 496.392 220.217 484.526 214.111 477.751 C 210.271 475.377 202.855 470.05 210.852 470.863 C 219.862 475.018 224.888 485.618 222.491 495.228 C 222.186 505.918 207.392 508.781 200.023 502.982 C 190.455 499.828 186.982 487.577 192.329 479.403 C 195.716 473.373 207.524 470.251 210.782 471.588 L 208.372 473.339 L 208.373 473.339 Z"/>
    </g>
  </g>
</svg>