<?xml version="1.0" encoding="utf-8"?>
<svg viewBox="8.055 1.151 653.625 500" xmlns="http://www.w3.org/2000/svg">
  <g transform="matrix(0.8710160255432129, 0, 0, 0.8710160255432129, 257.00738525390625, 173.4737854003906)">
    <g transform="translate(-136.89 -361.85)" stroke="#000" stroke-width="2">
      <path d="M 203.646 428.055 C 220.963 441.674 235.019 458.916 252.266 472.603 C 246.596 477.85 241.932 466.849 237.099 464.371 C 225.144 452.67 213.685 440.307 200.295 430.201 L 203.646 428.055 L 203.646 428.055 Z"/>
      <path d="M 242.906 432.325 C 233.692 438.413 225.956 446.61 218.863 455.007 C 214.566 459.011 214.931 467.124 208.599 468.652 C 212.224 459.902 217.832 452.185 224.994 445.977 C 230.34 440.798 235.582 434.618 242.907 432.325 L 242.906 432.325 Z"/>
    </g>
  </g>
</svg>